<svg xmlns="http://www.w3.org/2000/svg" version="1.1" xmlns:xlink="http://www.w3.org/1999/xlink" xmlns:svgjs="http://svgjs.dev/svgjs" width="128" height="128" viewBox="0 0 128 128"><g transform="matrix(0.639751552795031,0,0,0.639751552795031,23.130697287308323,12.333870967741937)"><svg viewBox="0 0 123 155" data-background-color="#ffffff" preserveAspectRatio="xMidYMid meet" height="161" width="128" xmlns="http://www.w3.org/2000/svg" xmlns:xlink="http://www.w3.org/1999/xlink"><g id="tight-bounds" transform="matrix(1,0,0,1,-0.11234817813764408,0.25)"><svg viewBox="0 0 123.22469635627529 154.5" height="154.5" width="123.22469635627529"><g><svg viewBox="0 0 123.22469635627529 154.5" height="154.5" width="123.22469635627529"><g><svg viewBox="0 0 123.22469635627529 154.5" height="154.5" width="123.22469635627529"><g id="textblocktransform"><svg viewBox="0 0 123.22469635627529 154.5" height="154.5" width="123.22469635627529" id="textblock"><g><svg viewBox="0 0 123.22469635627529 154.5" height="154.5" width="123.22469635627529"><g transform="matrix(1,0,0,1,0,0)"><svg width="123.22469635627529" viewBox="1.95 -36.65 29.55 37.05" height="154.5" data-palette-color="#7a26c1"><path d="M19.4-17.35L31.5-17.35 31.5-2.15Q29.4-0.95 26.5-0.28 23.6 0.4 20.6 0.4L20.6 0.4Q16.3 0.4 12.88-0.95 9.45-2.3 7-4.67 4.55-7.05 3.25-10.3 1.95-13.55 1.95-17.4L1.95-17.4Q1.95-21.65 3.48-25.18 5-28.7 7.63-31.25 10.25-33.8 13.68-35.23 17.1-36.65 20.95-36.65L20.95-36.65Q23.55-36.65 26.4-35.98 29.25-35.3 31.35-34.05L31.35-34.05 28.7-29.6Q27.95-30.05 26.98-30.4 26-30.75 24.95-31 23.9-31.25 22.85-31.38 21.8-31.5 20.85-31.5L20.85-31.5Q18.2-31.5 15.75-30.45 13.3-29.4 11.45-27.55 9.6-25.7 8.5-23.2 7.4-20.7 7.4-17.8L7.4-17.8Q7.4-15.15 8.38-12.8 9.35-10.45 11.1-8.65 12.85-6.85 15.3-5.8 17.75-4.75 20.7-4.75L20.7-4.75Q21.85-4.75 23.43-4.98 25-5.2 26.45-5.75L26.45-5.75 26.45-12.65 19.4-12.65 19.4-17.35Z" opacity="1" transform="matrix(1,0,0,1,0,0)" fill="#7a26c1" class="wordmark-text-0" data-fill-palette-color="primary" id="text-0"></path></svg></g></svg></g></svg></g></svg></g><g></g></svg></g><defs></defs></svg><rect width="123.22469635627529" height="154.5" fill="none" stroke="none" visibility="hidden"></rect></g></svg></g></svg>