<svg xmlns="http://www.w3.org/2000/svg" version="1.1" xmlns:xlink="http://www.w3.org/1999/xlink" xmlns:svgjs="http://svgjs.dev/svgjs" width="2000" height="646" viewBox="0 0 2000 646"><g transform="matrix(1,0,0,1,0.3398876404492057,0.5203629188202967)"><svg viewBox="0 0 356 115" data-background-color="#ffffff" preserveAspectRatio="xMidYMid meet" height="646" width="2000" xmlns="http://www.w3.org/2000/svg" xmlns:xlink="http://www.w3.org/1999/xlink"><g id="tight-bounds" transform="matrix(1,0,0,1,-0.06049999999996203,-0.09263426573426159)"><svg viewBox="0 0 356.12052 115.18526853146854" height="115.18526853146854" width="356.12052"><g><svg viewBox="0 0 356.12052 115.18526853146854" height="115.18526853146854" width="356.12052"><g><svg viewBox="0 0 356.12052 115.18526853146854" height="115.18526853146854" width="356.12052"><g><path d="M0 115.185v-115.185h356.121v115.185z" fill="#8138ec" stroke="transparent" stroke-width="0" rx="0%" data-fill-palette-color="tertiary"></path><path d="M3.283 111.902v-108.619h349.554v108.619z" fill="#ffffff" stroke="transparent" stroke-width="0" rx="0%" data-fill-palette-color="quaternary"></path><path d="M9.85 105.335v-95.485h336.421v95.485z" fill="#8138ec" stroke="transparent" stroke-width="0" data-fill-palette-color="tertiary"></path></g><g transform="matrix(1,0,0,1,19.69974,19.69974)" id="textblocktransform"><svg viewBox="0 0 316.72104 75.78578853146854" height="75.78578853146854" width="316.72104" id="textblock"><g><svg viewBox="0 0 316.72104 75.78578853146854" height="75.78578853146854" width="316.72104"><g transform="matrix(1,0,0,1,0,0)"><svg width="316.72104" viewBox="1.95 -38.85 164.44 39.35" height="75.78578853146854" data-palette-color="#ffffff"><path d="M19.4-17.35L31.5-17.35 31.5-2.15Q29.4-0.95 26.5-0.28 23.6 0.4 20.6 0.4L20.6 0.4Q16.3 0.4 12.88-0.95 9.45-2.3 7-4.67 4.55-7.05 3.25-10.3 1.95-13.55 1.95-17.4L1.95-17.4Q1.95-21.65 3.48-25.18 5-28.7 7.63-31.25 10.25-33.8 13.68-35.23 17.1-36.65 20.95-36.65L20.95-36.65Q23.55-36.65 26.4-35.98 29.25-35.3 31.35-34.05L31.35-34.05 28.7-29.6Q27.95-30.05 26.98-30.4 26-30.75 24.95-31 23.9-31.25 22.85-31.38 21.8-31.5 20.85-31.5L20.85-31.5Q18.2-31.5 15.75-30.45 13.3-29.4 11.45-27.55 9.6-25.7 8.5-23.2 7.4-20.7 7.4-17.8L7.4-17.8Q7.4-15.15 8.38-12.8 9.35-10.45 11.1-8.65 12.85-6.85 15.3-5.8 17.75-4.75 20.7-4.75L20.7-4.75Q21.85-4.75 23.43-4.98 25-5.2 26.45-5.75L26.45-5.75 26.45-12.65 19.4-12.65 19.4-17.35ZM63.3-7.55L65.6-2.6Q65-2.15 63.92-1.63 62.85-1.1 61.4-0.65 59.95-0.2 58.17 0.1 56.4 0.4 54.4 0.4L54.4 0.4Q50.15 0.4 46.77-1.07 43.4-2.55 41.05-5.05 38.7-7.55 37.45-10.85 36.2-14.15 36.2-17.85L36.2-17.85Q36.2-21.95 37.67-25.4 39.15-28.85 41.7-31.35 44.25-33.85 47.67-35.25 51.1-36.65 54.95-36.65L54.95-36.65Q56.4-36.65 57.9-36.45 59.4-36.25 60.72-35.9 62.05-35.55 63.07-35.08 64.1-34.6 64.65-34.1L64.65-34.1Q64.25-33.5 64.02-33.1 63.8-32.7 63.55-32.27 63.3-31.85 63-31.3 62.7-30.75 62.2-29.85L62.2-29.85Q61.55-30.3 60.67-30.6 59.8-30.9 58.85-31.1 57.9-31.3 56.92-31.4 55.95-31.5 55.15-31.5L55.15-31.5Q52.25-31.5 49.77-30.43 47.3-29.35 45.5-27.53 43.7-25.7 42.67-23.3 41.65-20.9 41.65-18.3L41.65-18.3Q41.65-15.75 42.62-13.4 43.6-11.05 45.32-9.2 47.05-7.35 49.47-6.25 51.9-5.15 54.8-5.15L54.8-5.15Q56.35-5.15 57.8-5.45 59.25-5.75 60.42-6.15 61.6-6.55 62.37-6.95 63.15-7.35 63.3-7.55L63.3-7.55ZM78.2-8.65L68.9-8.65 68.9-13.1 78.2-13.1 78.2-8.65ZM80.44-36.25L103.99-36.25 103.99-31.05 94.84-31.05 94.84 0 89.39 0 89.39-31.05 80.44-31.05 80.44-36.25ZM102.14-10.25L102.14-10.25Q102.14-12.55 103.02-14.58 103.89-16.6 105.39-18.13 106.89-19.65 108.87-20.55 110.84-21.45 113.09-21.45L113.09-21.45Q114.59-21.45 115.84-21.08 117.09-20.7 117.99-20.15 118.89-19.6 119.44-19 119.99-18.4 120.19-17.95L120.19-17.95 120.39-20.9 124.49-20.9 124.49 0 120.19 0 120.19-2.65Q119.94-2.25 119.39-1.7 118.84-1.15 117.97-0.68 117.09-0.2 115.89 0.15 114.69 0.5 113.14 0.5L113.14 0.5Q110.74 0.5 108.72-0.38 106.69-1.25 105.24-2.73 103.79-4.2 102.97-6.15 102.14-8.1 102.14-10.25ZM106.44-10.5L106.44-10.5Q106.44-9.05 106.97-7.8 107.49-6.55 108.39-5.65 109.29-4.75 110.54-4.23 111.79-3.7 113.29-3.7L113.29-3.7Q114.79-3.7 116.06-4.23 117.34-4.75 118.27-5.68 119.19-6.6 119.69-7.83 120.19-9.05 120.19-10.5L120.19-10.5Q120.19-11.95 119.69-13.18 119.19-14.4 118.27-15.3 117.34-16.2 116.06-16.73 114.79-17.25 113.29-17.25L113.29-17.25Q111.79-17.25 110.54-16.73 109.29-16.2 108.39-15.3 107.49-14.4 106.97-13.18 106.44-11.95 106.44-10.5ZM142.14-19.05L142.14-19.05 139.89-16.05Q139.84-16.1 139.54-16.3 139.24-16.5 138.76-16.7 138.29-16.9 137.66-17.07 137.04-17.25 136.39-17.25L136.39-17.25Q135.54-17.25 134.71-16.85 133.89-16.45 133.89-15.35L133.89-15.35Q133.89-14.4 134.56-13.8 135.24-13.2 136.24-12.73 137.24-12.25 138.41-11.75 139.59-11.25 140.59-10.53 141.59-9.8 142.26-8.72 142.94-7.65 142.94-6L142.94-6Q142.94-3.2 141.01-1.38 139.09 0.45 135.74 0.45L135.74 0.45Q133.79 0.45 131.91-0.23 130.04-0.9 128.89-2.2L128.89-2.2Q129.24-2.55 129.66-3.1 130.09-3.65 130.51-4.15 130.94-4.65 131.21-4.98 131.49-5.3 131.54-5.3L131.54-5.3Q131.54-5.25 131.91-5 132.29-4.75 132.89-4.48 133.49-4.2 134.24-3.98 134.99-3.75 135.74-3.75L135.74-3.75Q136.94-3.75 137.79-4.35 138.64-4.95 138.64-5.95L138.64-5.95Q138.64-6.85 137.96-7.38 137.29-7.9 136.29-8.35 135.29-8.8 134.09-9.28 132.89-9.75 131.89-10.5 130.89-11.25 130.21-12.38 129.54-13.5 129.54-15.3L129.54-15.3Q129.54-17 130.16-18.15 130.79-19.3 131.76-20.03 132.74-20.75 133.94-21.08 135.14-21.4 136.24-21.4L136.24-21.4Q137.69-21.4 139.34-20.8 140.99-20.2 142.14-19.05ZM162.34-21.45L162.34-21.45 164.89-18.9Q162.99-17.15 161.26-15.5 159.54-13.85 157.64-12.05L157.64-12.05Q159.89-9.05 162.04-6.03 164.19-3 166.39 0L166.39 0 161.49 0Q159.79-2.35 158.06-4.63 156.34-6.9 154.64-9.25L154.64-9.25 151.74-6.6 151.74 0 147.49 0 147.49-38.85 151.74-38.85 151.74-11.6Q154.54-14.15 157.09-16.53 159.64-18.9 162.34-21.45Z" opacity="1" transform="matrix(1,0,0,1,0,0)" fill="#ffffff" class="wordmark-text-0" data-fill-palette-color="quaternary" id="text-0"></path></svg></g></svg></g></svg></g></svg></g><g></g></svg></g><defs></defs></svg><rect width="356.12052" height="115.18526853146854" fill="none" stroke="none" visibility="hidden"></rect></g></svg></g></svg>